<svg xmlns="http://www.w3.org/2000/svg" xmlns:xlink="http://www.w3.org/1999/xlink" xmlns:lucid="lucid" width="2812.97" height="1536.9"><g transform="translate(0 0)" lucid:page-tab-id="0_0"><g filter="url(#a)"><path d="M200 432.2a20 20 0 0 1 20-20h440a20 20 0 0 1 20 20v746.97a20 20 0 0 1-20 20H220a20 20 0 0 1-20-20z" stroke="#6f7681" stroke-width="4" fill="#fff"/><path d="M315 493.37h363v3H315zM295 469.7c0 20.7-16.8 37.5-37.5 37.5S220 490.4 220 469.7s16.8-37.5 37.5-37.5S295 449 295 469.7z" fill="#e5e5e5"/><use xlink:href="#b" transform="matrix(1,0,0,1,315,454.0288368136003) translate(0 24.580000000000002)"/></g><g filter="url(#c)"><path d="M240 538.6a20 20 0 0 1 20-20h360a20 20 0 0 1 20 20V800a20 20 0 0 1-20 20H260a20 20 0 0 1-20-20z" stroke="#6f7681" stroke-width="3" fill="#fff"/><path d="M355 599.76h283.5v3H355z" fill="#e5e5e5"/><use xlink:href="#d" transform="matrix(1,0,0,1,355,560.4272120083556) translate(0 24.580000000000002)"/><use xlink:href="#e" transform="matrix(1,0,0,1,355,560.4272120083556) translate(87.12 24.580000000000002)"/></g><g filter="url(#f)"><path d="M295 665a20 20 0 0 1 20-20h260a20 20 0 0 1 20 20v79.16a20 20 0 0 1-20 20H315a20 20 0 0 1-20-20z" stroke="#6f7681" stroke-width="3" fill="#fff"/><path d="M315 726.16h278.5v3H315z" fill="#e5e5e5"/><use xlink:href="#g" transform="matrix(1,0,0,1,315,686.8255872031109) translate(0 24.580000000000002)"/><use xlink:href="#h" transform="matrix(1,0,0,1,315,686.8255872031109) translate(111.07555555555555 24.580000000000002)"/></g><g filter="url(#i)"><path d="M900 494.77a20 20 0 0 1 20-20h467.5a20 20 0 0 1 20 20v557.1a20 20 0 0 1-20 20H920a20 20 0 0 1-20-20z" stroke="#6f7681" stroke-width="3" fill="#fff"/><path d="M1015 555.94h391v3h-391z" fill="#e5e5e5"/><use xlink:href="#j" transform="matrix(1,0,0,1,1015,516.6045485950216) translate(0 24.580000000000002)"/><use xlink:href="#k" transform="matrix(1,0,0,1,1015,516.6045485950216) translate(72.64888888888888 24.580000000000002)"/></g><g filter="url(#l)"><path d="M2160 558.6a20 20 0 0 1 20-20h440a20 20 0 0 1 20 20v487.08a20 20 0 0 1-20 20h-440a20 20 0 0 1-20-20z" stroke="#6f7681" stroke-width="4" fill="#fff"/><path d="M2275 619.76h363v3h-363z" fill="#e5e5e5"/><use xlink:href="#m" transform="matrix(1,0,0,1,2275,580.4272120083556) translate(0 24.580000000000002)"/><use xlink:href="#n" transform="matrix(1,0,0,1,2275,580.4272120083556) translate(61.50222222222222 24.580000000000002)"/></g><path d="M335 576.1c0 20.7-16.8 37.5-37.5 37.5S260 596.8 260 576.1s16.8-37.5 37.5-37.5 37.5 16.8 37.5 37.5z" stroke="#000" stroke-opacity="0" stroke-width="2.34" fill="#481a54"/><path d="M297.5 571.52c2.42 0 4.43-2 4.43-4.42s-2-4.43-4.43-4.43c-2.42 0-4.43 2-4.43 4.43 0 2.54 2 4.42 4.43 4.42zm0-5.77c.8 0 1.48.67 1.48 1.48 0 .8-.68 1.48-1.48 1.48-.8 0-1.48-.67-1.48-1.47 0-.8.68-1.48 1.48-1.48zM289.83 574.12c.54.53 1.48.66 2 .14.55-.54.68-1.48.15-2.02-2.4-2.8-2.4-6.97 0-9.8.53-.53.53-1.46-.14-2-.66-.54-1.47-.54-2 .13-3.48 3.88-3.48 9.66 0 13.55zM303.12 574.22c.53.52 1.47.52 2-.15 3.5-3.88 3.5-9.75 0-13.63-.53-.53-1.47-.66-2-.13-.54.55-.67 1.5-.13 2 2.4 2.82 2.4 6.97 0 9.77-.55.67-.55 1.6.12 2.15z" stroke="#000" stroke-opacity="0" stroke-width="2.34" fill="#fff"/><path d="M308.76 556c-.53-.52-1.47-.52-2 0-.54.55-.54 1.5 0 2.03 5.08 4.82 5.22 12.86.4 17.96-.14.1-.27.25-.4.4-.54.52-.54 1.47 0 2 .53.53 1.47.53 2 0 6.3-6.02 6.43-15.8.54-22.1-.14.13-.4-.15-.54-.28zM288.3 578.5c.52-.53.52-1.47 0-2-5.1-4.83-5.24-12.85-.42-17.93l.4-.4c.54-.54.54-1.47 0-2.15-.53-.54-1.47-.54-2.14 0-6.3 6-6.43 15.8-.53 22.1.14.1.4.4.54.53.67.5 1.6.5 2.15-.14 0 .15 0 .15 0 0zM301.74 576.36c-.26-.54-.66-.94-1.33-.94h-5.88c-.66 0-1.07.4-1.33.94l-6.56 18.33c-.26.8.13 1.6.8 1.86.53.15 1.07.15 1.47-.25l8.56-7.23 8.56 7.24c.67.54 1.48.4 2-.14.4-.4.4-.94.27-1.47l-6.56-18.35zm-10.56 14.17l1.87-5.2 2.14 1.74-4.02 3.46zm2.94-8.15l1.47-4h3.74l1.46 4-3.34 2.8-3.34-2.8zm5.6 4.7l2.15-1.75 1.88 5.2-4.02-3.46z" stroke="#000" stroke-opacity="0" stroke-width="2.34" fill="#fff"/><path d="M295 469.7c0 20.7-16.8 37.5-37.5 37.5S220 490.4 220 469.7s16.8-37.5 37.5-37.5S295 449 295 469.7z" stroke="#000" stroke-opacity="0" stroke-width="2.34" fill="#321d71"/><path d="M275.3 461.9h-2.26v-7.76c0-.82-.7-1.62-1.62-1.62H237.3c-.84 0-1.63.66-1.63 1.62v24.9c0 .82.66 1.6 1.62 1.6h15.53v2.28h-3.9c-.8 0-1.6.7-1.6 1.62 0 .8.65 1.62 1.6 1.62h10.85c.82 0 1.6-.7 1.6-1.62 0-.8-.65-1.62-1.6-1.62h-3.9v-2.27h7.77v2.27c0 2.17 1.75 4.03 4.02 4.03h7.64c2.15 0 4.02-1.76 4.02-4.03v-17c0-2.28-1.87-4.03-4-4.03zm.93 20.88c0 .55-.4.97-.92.97h-7.63c-.52 0-.92-.42-.92-.97v-16.86c0-.5.4-.9.92-.9h7.77c.52 0 .96.4.96.9v16.88zm-35.88-5.33h-1.58V455.6h31.17v6.3h-2.27c-2.14 0-4.02 1.74-4.02 4v10.86c-.52-1.2-1.22-2.27-2.13-3.2-.66-.7-1.5-1.35-2.4-1.76 1.3-1.34 2.26-3.06 2.26-5.1 0-3.85-3.1-6.95-6.98-6.95-3.88 0-6.94 3.1-6.94 6.96 0 2.04.8 3.9 2.27 5.1-2.27 1.2-4 3.37-4.8 5.78h-4.58zm10.17-10.85c0-2.17 1.74-3.9 3.88-3.9 2.18 0 3.9 1.73 3.9 3.9 0 2.14-1.72 3.86-3.9 3.86-2.14 0-3.88-1.72-3.88-3.86zm-2.4 10.85c1.22-2.28 3.5-3.9 6.28-3.9 1.88 0 3.62.66 4.98 2 .52.55.9 1.2 1.35 1.9H248.1z" stroke="#000" stroke-opacity="0" stroke-width="2.34" fill="#fff"/><path d="M271.56 479.07c-.8 0-1.6.67-1.6 1.6 0 .82.66 1.62 1.6 1.62.8 0 1.6-.68 1.6-1.62 0-.27-.13-.54-.26-.8-.27-.54-.8-.8-1.34-.8zM245.84 458.07c-2.55 0-4.7 2.14-4.7 4.67v1.6c0 .8.68 1.6 1.62 1.6.8 0 1.6-.66 1.6-1.6v-1.6c0-.8.67-1.6 1.6-1.6.8 0 1.62-.66 1.62-1.6-.27-.8-.94-1.47-1.74-1.47z" stroke="#000" stroke-opacity="0" stroke-width="2.34" fill="#fff"/><path d="M1948.64 228.05c0 2.65-2.15 4.8-4.8 4.8s-4.8-2.15-4.8-4.8 2.15-4.8 4.8-4.8 4.8 2.15 4.8 4.8z" stroke="#c92d39" stroke-width="2" fill="#fff"/><path d="M995 532.27c0 20.7-16.8 37.5-37.5 37.5s-37.5-16.8-37.5-37.5 16.8-37.5 37.5-37.5 37.5 16.8 37.5 37.5z" stroke="#000" stroke-opacity="0" fill="#032d60"/><path d="M974.3 514.86c-2.86 0-5.2 2.34-5.2 5.2 0 .45.1.82.13 1.15l-4.9 3.25c-1.5-1.77-3.7-2.9-6.26-2.9-1.9 0-3.66.64-5.02 1.7l-8.03-5.52c.5-2.13-.62-4.46-2.65-5.4-2.42-1.1-5.24-.1-6.35 2.25-1.1 2.33-.1 5.28 2.25 6.34 1.24.62 2.65.62 3.88.1l8.25 5.76c-.35.9-.57 1.88-.57 2.9 0 .62.08 1.1.13 1.73l-5.03 1.8c-.66-.73-1.54-1.3-2.64-1.6-2.84-.8-5.84.87-6.63 3.82-.84 2.83.84 5.82 3.8 6.63 2.82.82 5.8-.86 6.6-3.8.1-.3.18-.58.18-.87l5.78-2.04c1.5 1.6 3.62 2.62 5.96 2.62h.65l.84 4.1c-1.56 1.22-2.44 3.23-2.22 5.28.26 3.35 3.26 5.77 6.66 5.44 3.35-.28 5.73-3.27 5.47-6.63-.3-3-2.73-5.24-5.64-5.5l-.88-4.3c2.07-1.46 3.44-3.92 3.44-6.66 0-.42-.04-.87-.04-1.24l5.73-3.8c.76.36 1.55.6 2.35.6 2.86 0 5.2-2.33 5.2-5.2-.1-2.86-2.42-5.2-5.25-5.2zm-16.23 20.2c-2.9 0-5.25-2.34-5.25-5.3 0-2.9 2.34-5.23 5.25-5.23 2.9 0 5.25 2.33 5.25 5.24 0 2.87-2.34 5.28-5.25 5.28z" stroke="#000" stroke-opacity="0" fill="#fff"/><path d="M958.1 532.08c1.3 0 2.36-1.05 2.36-2.34 0-1.3-1.05-2.34-2.35-2.34-1.28 0-2.33 1.05-2.33 2.34 0 1.3 1.05 2.34 2.35 2.34z" stroke="#000" stroke-opacity="0" fill="#fff"/><g filter="url(#o)"><path d="M997.4 609.55a20 20 0 0 1 20-20H1280a20 20 0 0 1 20 20v79.17a20 20 0 0 1-20 20h-262.6a20 20 0 0 1-20-20z" stroke="#6f7681" stroke-width="3" fill="#fff"/><path d="M1017.4 670.72h281.1v3h-281.1z" fill="#e5e5e5"/><use xlink:href="#p" transform="matrix(1,0,0,1,1017.4139612252293,631.377986078932) translate(69.96111111111111 24.580000000000002)"/></g><g filter="url(#o)"><path d="M997.4 759.55a20 20 0 0 1 20-20H1280a20 20 0 0 1 20 20v79.17a20 20 0 0 1-20 20h-262.6a20 20 0 0 1-20-20z" stroke="#6f7681" stroke-width="3" fill="#fff"/><path d="M1017.4 820.72h281.1v3h-281.1z" fill="#e5e5e5"/><use xlink:href="#q" transform="matrix(1,0,0,1,1017.4139612252293,781.377986078932) translate(64.75444444444445 24.580000000000002)"/></g><path d="M644 669.3h168.7a6 6 0 0 0 6-6v-8.17a6 6 0 0 1 6-6h146.36" stroke="#e81313" stroke-width="5" fill="none"/><path d="M644.06 671.77h-2.56v-4.95h2.56z" stroke="#e81313" stroke-width=".05" fill="#e81313"/><path d="M987.82 649.13l-14.26 4.64v-9.27z" stroke="#e81313" stroke-width="5" fill="#e81313"/><g filter="url(#r)"><path d="M1500 385.23a20 20 0 0 1 20-20h440a20 20 0 0 1 20 20V1220a20 20 0 0 1-20 20h-440a20 20 0 0 1-20-20z" stroke="#6f7681" stroke-width="3" fill="#fff"/><path d="M1615 446.4h363.5v3H1615z" fill="#e5e5e5"/><use xlink:href="#s" transform="matrix(1,0,0,1,1615,407.05767362720053) translate(0 24.580000000000002)"/></g><g filter="url(#c)"><path d="M240 860a20 20 0 0 1 20-20h360a20 20 0 0 1 20 20v261.4a20 20 0 0 1-20 20H260a20 20 0 0 1-20-20z" stroke="#6f7681" stroke-width="3" fill="#fff"/><path d="M355 921.17h283.5v3H355z" fill="#e5e5e5"/><use xlink:href="#d" transform="matrix(1,0,0,1,355,881.8311111111111) translate(0 24.580000000000002)"/><use xlink:href="#t" transform="matrix(1,0,0,1,355,881.8311111111111) translate(87.12 24.580000000000002)"/></g><path d="M335 897.5c0 20.7-16.8 37.5-37.5 37.5S260 918.2 260 897.5s16.8-37.5 37.5-37.5 37.5 16.8 37.5 37.5z" stroke="#000" stroke-opacity="0" stroke-width="2.34" fill="#481a54"/><path d="M297.5 892.92c2.42 0 4.43-2 4.43-4.42s-2-4.42-4.43-4.42c-2.42 0-4.43 2-4.43 4.42 0 2.55 2 4.42 4.43 4.42zm0-5.76c.8 0 1.48.67 1.48 1.47 0 .8-.68 1.48-1.48 1.48-.8 0-1.48-.66-1.48-1.47 0-.8.68-1.48 1.48-1.48zM289.83 895.52c.54.54 1.48.67 2 .14.55-.53.68-1.48.15-2.02-2.4-2.8-2.4-6.97 0-9.8.53-.53.53-1.46-.14-2-.66-.54-1.47-.54-2 .13-3.48 3.9-3.48 9.66 0 13.55zM303.12 895.62c.53.53 1.47.53 2-.15 3.5-3.87 3.5-9.75 0-13.63-.53-.52-1.47-.66-2-.13-.54.55-.67 1.5-.13 2 2.4 2.82 2.4 6.98 0 9.77-.55.67-.55 1.6.12 2.15z" stroke="#000" stroke-opacity="0" stroke-width="2.34" fill="#fff"/><path d="M308.76 877.42c-.53-.53-1.47-.53-2 0-.54.53-.54 1.48 0 2 5.08 4.84 5.22 12.88.4 17.98-.14.1-.27.25-.4.4-.54.52-.54 1.47 0 2 .53.54 1.47.54 2 0 6.3-6.02 6.43-15.8.54-22.1-.14.14-.4-.14-.54-.28zM288.3 899.9c.52-.53.52-1.46 0-2-5.1-4.82-5.24-12.85-.42-17.93l.4-.4c.54-.53.54-1.47 0-2.15-.53-.53-1.47-.53-2.14 0-6.3 6.02-6.43 15.8-.53 22.1.14.1.4.4.54.53.67.52 1.6.52 2.15-.14 0 .15 0 .15 0 0zM301.74 897.76c-.26-.53-.66-.93-1.33-.93h-5.88c-.66 0-1.07.4-1.33.93l-6.56 18.34c-.26.8.13 1.6.8 1.87.53.14 1.07.14 1.47-.26l8.56-7.23 8.56 7.24c.67.54 1.48.4 2-.14.4-.4.4-.93.27-1.46l-6.56-18.34zm-10.56 14.18l1.87-5.2 2.14 1.74-4.02 3.46zm2.94-8.15l1.47-4.02h3.74l1.46 4-3.34 2.8-3.34-2.8zm5.6 4.68l2.15-1.74 1.88 5.2-4.02-3.46z" stroke="#000" stroke-opacity="0" stroke-width="2.34" fill="#fff"/><g filter="url(#f)"><path d="M295 980a20 20 0 0 1 20-20h260a20 20 0 0 1 20 20v79.17a20 20 0 0 1-20 20H315a20 20 0 0 1-20-20z" stroke="#6f7681" stroke-width="3" fill="#fff"/><path d="M315 1041.17h278.5v3H315z" fill="#e5e5e5"/><use xlink:href="#g" transform="matrix(1,0,0,1,315,1001.8311111111111) translate(0 24.580000000000002)"/><use xlink:href="#h" transform="matrix(1,0,0,1,315,1001.8311111111111) translate(111.07555555555555 24.580000000000002)"/></g><path d="M1595 422.73c0 20.7-16.8 37.5-37.5 37.5s-37.5-16.8-37.5-37.5 16.8-37.5 37.5-37.5 37.5 16.8 37.5 37.5z" stroke="#000" stroke-opacity="0" fill="#032d60"/><path d="M1544.45 400.68h-6c-1.7 0-3 1.3-3 3v6c0 1.7 1.3 3 3 3h6c1.7 0 3-1.3 3-3v-6c0-1.7-1.3-3-3-3zM1544.45 432.78h-6c-1.7 0-3 1.3-3 3v6c0 1.7 1.3 3 3 3h6c1.7 0 3-1.3 3-3v-6c0-1.7-1.3-3-3-3zM1544.45 416.73h-6c-1.7 0-3 1.3-3 3v6c0 1.7 1.3 3 3 3h6c1.7 0 3-1.3 3-3v-6c0-1.7-1.3-3-3-3zM1560.5 400.68h-6c-1.7 0-3 1.3-3 3v6c0 1.7 1.3 3 3 3h6c1.7 0 3-1.3 3-3v-6c0-1.7-1.3-3-3-3zM1560.5 432.78h-6c-1.7 0-3 1.3-3 3v6c0 1.7 1.3 3 3 3h6c1.7 0 3-1.3 3-3v-6c0-1.7-1.3-3-3-3zM1560.5 416.73h-6c-1.7 0-3 1.3-3 3v6c0 1.7 1.3 3 3 3h6c1.7 0 3-1.3 3-3v-6c0-1.7-1.3-3-3-3zM1576.55 400.68h-6c-1.7 0-3 1.3-3 3v6c0 1.7 1.3 3 3 3h6c1.7 0 3-1.3 3-3v-6c0-1.7-1.3-3-3-3zM1576.55 432.78h-6c-1.7 0-3 1.3-3 3v6c0 1.7 1.3 3 3 3h6c1.7 0 3-1.3 3-3v-6c0-1.7-1.3-3-3-3zM1576.55 416.73h-6c-1.7 0-3 1.3-3 3v6c0 1.7 1.3 3 3 3h6c1.7 0 3-1.3 3-3v-6c0-1.7-1.3-3-3-3z" stroke="#000" stroke-opacity="0" fill="#fff"/><g filter="url(#o)"><path d="M1588.7 500a20 20 0 0 1 20-20h262.6a20 20 0 0 1 20 20v79.17a20 20 0 0 1-20 20h-262.6a20 20 0 0 1-20-20z" stroke="#6f7681" stroke-width="3" fill="#fff"/><path d="M1608.7 561.17h281.1v3h-281.1z" fill="#e5e5e5"/><use xlink:href="#u" transform="matrix(1,0,0,1,1608.7069806126146,521.8311111111111) translate(43.267777777777766 24.580000000000002)"/><use xlink:href="#v" transform="matrix(1,0,0,1,1608.7069806126146,521.8311111111111) translate(101.81222222222222 24.580000000000002)"/><use xlink:href="#w" transform="matrix(1,0,0,1,1608.7069806126146,521.8311111111111) translate(167.86111111111111 24.580000000000002)"/></g><g filter="url(#o)"><path d="M1588.7 700a20 20 0 0 1 20-20h262.6a20 20 0 0 1 20 20v79.17a20 20 0 0 1-20 20h-262.6a20 20 0 0 1-20-20z" stroke="#6f7681" stroke-width="3" fill="#fff"/><path d="M1608.7 761.17h281.1v3h-281.1z" fill="#e5e5e5"/><use xlink:href="#x" transform="matrix(1,0,0,1,1608.7069806126146,721.8311111111111) translate(49.83111111111111 24.580000000000002)"/><use xlink:href="#y" transform="matrix(1,0,0,1,1608.7069806126146,721.8311111111111) translate(87.52444444444444 24.580000000000002)"/></g><path d="M1304 649.13h134.35a6 6 0 0 0 6-6v-97.55a6 6 0 0 1 6-6h112" stroke="#3a414a" stroke-width="5" fill="none"/><path d="M1304.06 651.6h-2.56v-4.94h2.56z" stroke="#3a414a" stroke-width=".05" fill="#3a414a"/><path d="M1579.12 539.58l-14.27 4.64v-9.27z" stroke="#3a414a" stroke-width="5" fill="#3a414a"/><path d="M1895.3 539.58h48.7a6 6 0 0 1 6 6V614a6 6 0 0 1-6 6h-398a6 6 0 0 0-6 6v167.13a6 6 0 0 1-6 6h-207.64" stroke="#3a414a" stroke-width="5" fill="none"/><path d="M1895.36 542.06h-2.57v-4.95h2.56z" stroke="#3a414a" stroke-width=".05" fill="#3a414a"/><path d="M1309.6 799.13l14.26-4.63v9.27z" stroke="#3a414a" stroke-width="5" fill="#3a414a"/><path d="M1304 649.13h134.35a6 6 0 0 1 6 6v78.45a6 6 0 0 0 6 6H1533c0-3.86 3.13-7 7-7s7 3.14 7 7h15.35" stroke="#3a414a" stroke-width="5" fill="none"/><path d="M1304.06 651.6h-2.56v-4.94h2.56z" stroke="#3a414a" stroke-width=".05" fill="#3a414a"/><path d="M1579.12 739.58l-14.27 4.64v-9.27z" stroke="#3a414a" stroke-width="5" fill="#3a414a"/><path d="M1895.3 739.58h31.5a6 6 0 0 1 6 6V1084a6 6 0 0 1-6 6h-476.45a6 6 0 0 1-6-6V960.36a6 6 0 0 0-6-6h-112" stroke="#1071e5" stroke-width="5" fill="none"/><path d="M1895.36 742.06h-2.57v-4.95h2.56z" stroke="#1071e5" stroke-width=".05" fill="#1071e5"/><path d="M1309.6 954.36l14.26-4.64V959z" stroke="#1071e5" stroke-width="5" fill="#1071e5"/><path d="M644 990.7h208.7a6 6 0 0 0 6-6V655.13a6 6 0 0 1 6-6h106.36" stroke="#e81313" stroke-width="5" fill="none"/><path d="M644.06 993.18h-2.56v-4.95h2.56z" stroke="#e81313" stroke-width=".05" fill="#e81313"/><path d="M987.82 649.13l-14.26 4.64v-9.27z" stroke="#e81313" stroke-width="5" fill="#e81313"/><g filter="url(#o)"><path d="M1588.7 857.92a20 20 0 0 1 20-20h262.6a20 20 0 0 1 20 20v79.16a20 20 0 0 1-20 20h-262.6a20 20 0 0 1-20-20z" stroke="#6f7681" stroke-width="3" fill="#fff"/><path d="M1608.7 919.08h281.1v3h-281.1z" fill="#e5e5e5"/><use xlink:href="#z" transform="matrix(1,0,0,1,1608.7069806126146,879.7466666666667) translate(37.242222222222225 24.580000000000002)"/><use xlink:href="#A" transform="matrix(1,0,0,1,1608.7069806126146,879.7466666666667) translate(74.91111111111111 24.580000000000002)"/></g><path d="M1895.3 539.58h164.1a6 6 0 0 1 6 6v250.56a6 6 0 0 0 6 6h61.74" stroke="#3a414a" stroke-width="5" fill="none"/><path d="M1895.36 542.06h-2.57v-4.95h2.56z" stroke="#3a414a" stroke-width=".05" fill="#3a414a"/><path d="M2149.9 802.14l-14.26 4.63v-9.27z" stroke="#3a414a" stroke-width="5" fill="#3a414a"/><path d="M2255 596.1c0 20.7-16.8 37.5-37.5 37.5s-37.5-16.8-37.5-37.5 16.8-37.5 37.5-37.5 37.5 16.8 37.5 37.5z" stroke="#000" stroke-opacity="0" stroke-width="2.34" fill="#321d71"/><path d="M2217.54 574.65c-8.3 0-17.3 2-17.3 6.55v29.72c0 4.54 9 6.55 17.3 6.55s17.28-2 17.28-6.55V581.2c0-4.54-8.98-6.55-17.28-6.55zm14.07 26.38c-.13.94-5.2 3.34-14.06 3.34-2.94 0-5.36-.26-7.37-.7v-6.54c2.42.38 4.95.56 7.37.56 5.22 0 10.72-.83 14.07-2.58v5.9zm-28.13-19.83c.13-.94 5.22-3.34 14.07-3.34 8.85 0 13.8 2.27 14.07 3.34-.27.94-5.2 3.34-14.06 3.34-8.85 0-13.8-2.27-14.07-3.34zm0 4.15c3.35 1.76 8.85 2.53 14.07 2.53 5.22 0 10.72-.77 14.07-2.53v5.74c-.13.93-5.2 3.37-14.06 3.37-2.94 0-5.36-.3-7.37-.68v-2.7c0-.9-.8-1.6-1.62-1.6-.8 0-1.73.7-1.73 1.6v1.88c-2-.65-3.22-1.46-3.36-1.9v-5.73zm0 9.9c.93.55 2 .94 3.35 1.2v6.42c-2-.64-3.22-1.46-3.36-1.84v-5.78zm14.07 18.88c-8.85 0-13.8-2.27-14.07-3.34V605c.93.57 2 .95 3.35 1.25v2.9c0 .96.8 1.64 1.6 1.64.82 0 1.6-.82 1.6-1.64v-2.27c2.43.42 4.96.55 7.38.55 5.22 0 10.72-.8 14.07-2.57v5.78c-.14 1.2-5.08 3.47-13.93 3.47z" stroke="#000" stroke-opacity="0" stroke-width="2.34" fill="#fff"/><g filter="url(#B)"><path d="M2320 660.68a20 20 0 0 1 20-20h140a20 20 0 0 1 20 20v79.17a20 20 0 0 1-20 20h-140a20 20 0 0 1-20-20z" stroke="#6f7681" stroke-width="3" fill="#fff"/><path d="M2340 721.85h158.5v3H2340z" fill="#e5e5e5"/><use xlink:href="#C" transform="matrix(1,0,0,1,2340,682.5144184068001) translate(0 24.580000000000002)"/><use xlink:href="#D" transform="matrix(1,0,0,1,2340,682.5144184068001) translate(89.78444444444445 24.580000000000002)"/></g><g filter="url(#B)"><path d="M2440 800a20 20 0 0 1 20-20h140a20 20 0 0 1 20 20v79.17a20 20 0 0 1-20 20h-140a20 20 0 0 1-20-20z" stroke="#6f7681" stroke-width="3" fill="#fff"/><path d="M2460 861.17h158.5v3H2460z" fill="#e5e5e5"/><use xlink:href="#C" transform="matrix(1,0,0,1,2460,821.8311111111111) translate(0 24.580000000000002)"/><use xlink:href="#E" transform="matrix(1,0,0,1,2460,821.8311111111111) translate(89.78444444444445 24.580000000000002)"/></g><g filter="url(#B)"><path d="M2310 939.32a20 20 0 0 1 20-20h140a20 20 0 0 1 20 20v79.17a20 20 0 0 1-20 20h-140a20 20 0 0 1-20-20z" stroke="#6f7681" stroke-width="3" fill="#fff"/><path d="M2330 1000.5h158.5v3H2330z" fill="#e5e5e5"/><use xlink:href="#C" transform="matrix(1,0,0,1,2330,961.1478038154221) translate(0 24.580000000000002)"/><use xlink:href="#F" transform="matrix(1,0,0,1,2330,961.1478038154221) translate(89.78444444444445 24.580000000000002)"/></g><path d="M2155.5 802.14H2145m-21.04 0h-21.03m-21.02 0h-10.5l-.94.07-.92.23-.87.36-.8.5-.72.6-.6.7-.5.82-.36.87-.23.9-.07.94v10.42m0 20.84v20.84m0 20.84v10.42l-.08.94-.22.9-.36.88-.5.8-.6.72-.72.6-.8.5-.87.37-.9.23-.95.07h-8.86m-17.72 0h-17.72m-17.72 0h-17.72m-17.72 0h-17.7m-17.73 0h-8.85" stroke="#ba23f6" stroke-width="5" fill="none"/><path d="M2158 804.6h-2.56v-4.94h2.56z" stroke="#ba23f6" stroke-width=".05" fill="#ba23f6"/><path d="M1900.88 897.5l14.27-4.63v9.26z" stroke="#ba23f6" stroke-width="5" fill="#ba23f6"/><g filter="url(#o)"><path d="M997.4 914.77a20 20 0 0 1 20-20H1280a20 20 0 0 1 20 20v79.17a20 20 0 0 1-20 20h-262.6a20 20 0 0 1-20-20z" stroke="#6f7681" stroke-width="3" fill="#fff"/><path d="M1017.4 975.94h281.1v3h-281.1z" fill="#e5e5e5"/><use xlink:href="#G" transform="matrix(1,0,0,1,1017.4139612252293,936.6045485950216) translate(86.36333333333334 24.580000000000002)"/></g><path d="M2280 805.68c0 22.1-17.9 40-40 40s-40-17.9-40-40 17.9-40 40-40 40 17.9 40 40z" stroke="#3a414a" fill="#fff"/><use xlink:href="#H" transform="matrix(1,0,0,1,2205,770.683307295689) translate(26.358024691358025 39.65277777777778)"/><path d="M2314.9 724.03l-1.6 2.32-3.83 4.8-5.56 6.07-7.45 7.1-8.66 7.18-8.43 6.07-7.07 4.4-5.5 2.9-4.16 1.84-3.16 1.16-2.45.7-1.93.42-1.55.22-1.28.1h-1.07l-.9-.07-.8-.1-.68-.15-.13-.04m-5.1-27.53l1.6-2.3 3.83-4.8 5.56-6.06 7.45-7.1 8.66-7.2 8.43-6.05 7.07-4.4 5.5-2.9 4.16-1.86 3.16-1.15 2.45-.7 1.93-.43 1.55-.22 1.28-.1h1.07l.9.07.8.1.68.15.13.04" stroke="#3a414a" fill="none"/><path d="M2319.95 710.5l-.65 14.98-8.7-3.24z" stroke="#3a414a" fill="#3a414a"/><path d="M2248.42 768.87l20.36-5.14" stroke="#3a414a" fill="none"/><path d="M2238.55 754.95l.65-14.98 8.7 3.24z" stroke="#3a414a" fill="#3a414a"/><path d="M2310.08 696.58l-20.36 5.14M2417 849.72l-.5.03h-4.9l-6.7-.26-9.35-.77-12.73-1.58-16.2-2.7-18-3.75-16.65-4.2-13.23-3.93-9.64-3.3-6.83-2.68-4.85-2.14-3.5-1.72-2.57-1.4-1.94-1.16-1.47-.97-1.15-.82-.92-.72-.73-.63-.6-.55-.48-.5-.4-.44-.34-.4-.27-.36m18.97-19.24l.5-.02h4.9l6.7.26 9.35.76 12.73 1.57 16.2 2.7 18 3.77 16.65 4.2 13.23 3.93 9.64 3.3 6.83 2.68 4.85 2.13 3.5 1.72 2.57 1.4 1.94 1.16 1.47.98 1.15.83.92.7.73.64.6.55.48.5.4.43.34.4.27.36" stroke="#3a414a" fill="none"/><path d="M2431.32 846.88l-13.1 7.33-1.8-9.1z" stroke="#3a414a" fill="#3a414a"/><path d="M2282.88 814.55l19 8.95" stroke="#3a414a" fill="none"/><path d="M2287.68 798.4l13.1-7.34 1.8 9.1z" stroke="#3a414a" fill="#3a414a"/><path d="M2436.13 830.72l-19-8.95M2287.04 973l-1.67-1.95-3.3-4.23-4.23-5.94-5.42-8.32-6.66-11.22-7.46-13.82-7.18-14.73-5.84-13.37-4.17-10.75-2.76-8.12-1.77-6.02-1.13-4.5-.7-3.4-.42-2.63-.25-2.05-.13-1.65-.04-1.35v-1.1l.05-.94.07-.77.1-.68.1-.58.1-.5.12-.45.03-.08m27 2.64l1.66 1.98 3.3 4.22 4.23 5.94 5.42 8.32 6.66 11.22 7.46 13.82 7.18 14.73 5.84 13.38 4.17 10.74 2.76 8.12 1.77 6.02 1.13 4.5.7 3.4.42 2.63.25 2.05.13 1.66.04 1.35v1.1l-.05.94-.07.77-.1.68-.1.58-.1.5-.12.45-.03.08" stroke="#3a414a" fill="none"/><path d="M2298.3 982.3l-13.96-5.5 5.9-7.16z" stroke="#3a414a" fill="#3a414a"/><path d="M2234.55 853.58l4.4 20.53" stroke="#3a414a" fill="none"/><path d="M2250.2 847.2l13.96 5.5-5.9 7.16z" stroke="#3a414a" fill="#3a414a"/><path d="M2313.95 975.93l-4.4-20.54M2157.5 802.14h-37.73a1.77 1.77 0 0 0-1.77 1.77 1.77 1.77 0 0 0 1.77 1.78h63.35" stroke="#3a414a" fill="none"/><path d="M2158 802.6h-.5v-.94h.5z" stroke="#3a414a" stroke-width=".05" fill="#3a414a"/><path d="M2197.88 805.68l-14.26 4.64v-9.27z" stroke="#3a414a" fill="#3a414a"/><path d="M993.4 954.36H936a6 6 0 0 1-6-6V710.58a6 6 0 0 0-6-6h-58.3c0-3.87-3.13-7-7-7-3.86 0-7 3.13-7 7H621.37" stroke="#1071e5" stroke-width="5" fill="none"/><path d="M995.9 956.83h-2.55v-4.95h2.56z" stroke="#1071e5" stroke-width=".05" fill="#1071e5"/><path d="M604.6 704.58l14.26-4.64v9.27z" stroke="#1071e5" stroke-width="5" fill="#1071e5"/><path d="M993.4 954.36H936a6 6 0 0 0-6 6v53.22a6 6 0 0 1-6 6H621.36" stroke="#1071e5" stroke-width="5" fill="none"/><path d="M995.9 956.83h-2.55v-4.95h2.56z" stroke="#1071e5" stroke-width=".05" fill="#1071e5"/><path d="M604.6 1019.58l14.26-4.63v9.27z" stroke="#1071e5" stroke-width="5" fill="#1071e5"/><path d="M1584.7 897.5h-9.67m-19.35 0H1546l-.94.07-.9.22-.88.35-.8.5-.72.6-.6.72-.5.8-.37.88-.23.9-.07.95v9.17m0 18.35v18.35m0 18.35v18.34m0 18.35v9.18l.07.94.22.92.35.87.5.8.6.73.72.6.8.5.88.36.9.2.95.08h9.87m19.75 0h19.75m19.74 0h19.76m19.74 0h19.75m19.75 0h19.74m19.75 0h19.73m19.75 0h19.75m19.74 0h19.75m19.74 0h19.75m19.76 0h19.74m19.75 0h19.74m19.74 0h19.75m19.73 0h19.75m19.74 0h9.88l.93-.07.92-.2.87-.37.8-.5.72-.6.6-.72.5-.8.36-.86.22-.92.08-.94v-10.27m0-20.53v-20.55m0-20.54v-20.55m0-20.54v-20.56m0-20.54v-20.54m0-20.55v-10.26l.07-.94.22-.9.35-.88.5-.8.6-.72.72-.6.8-.5.87-.37.92-.22.94-.06h7.7m15.45 0H2110m15.43 0h7.7" stroke="#ba23f6" stroke-width="5" fill="none"/><path d="M1587.2 899.98h-2.56V895h2.57z" stroke="#ba23f6" stroke-width=".05" fill="#ba23f6"/><path d="M2149.9 802.14l-14.26 4.63v-9.27z" stroke="#ba23f6" stroke-width="5" fill="#ba23f6"/><defs><path d="M335-708c157 0 270 77 267 237-3 159-110 238-267 242H211V0H80v-708h255zm134 238c0-136-122-140-259-133v268h113c83 0 146-47 146-135" id="I"/><path d="M380-422c-108-21-177 50-177 149V0H78c-4-180 9-350-9-520h120c6 28 5 55 10 72 34-65 100-96 186-82" id="J"/><path d="M314-534c172 0 271 101 271 272C585-92 485 14 314 14 144 14 44-93 44-262c0-171 98-272 270-272zm0 100c-102 0-140 71-140 172 0 102 39 177 141 177s142-75 142-177-40-172-143-172" id="K"/><path d="M44-257c2-159 83-277 241-277 59 0 108 17 147 52v-226h125c4 237-9 482 8 708H449c-6-26-5-51-10-65-38 51-88 79-175 79C113 16 42-104 44-257zM298-85c79 1 134-62 134-142v-152c-34-36-77-54-128-54-90 1-130 79-130 176S212-88 298-85" id="L"/><path d="M269 14C141 14 72-75 72-200v-320h126v301c0 78 28 134 105 134 81 0 128-71 128-153v-282h125c4 175-9 357 9 520H445c-6-24-5-47-10-61-37 50-92 75-166 75" id="M"/><path d="M44-261c0-170 96-273 266-273 65 0 123 19 174 56l-47 87c-40-26-82-39-126-39-98-1-141 69-141 169 0 97 44 171 139 170 41 0 84-13 129-40l45 89C436-9 374 14 299 14 127 14 44-98 44-261" id="N"/><path d="M295-534c175 0 256 137 237 320H170c10 80 57 129 145 129 69-1 102-19 149-47l54 80c-56 41-119 66-211 66C138 14 46-91 44-260c-2-161 90-274 251-274zm117 226c-3-74-41-132-118-132-79 0-120 59-125 132h243" id="O"/><path d="M39-378c0-175 271-194 382-101l-50 79c-41-25-82-38-123-38-83 0-118 83-42 107 98 31 223 49 223 175C429 33 141 56 23-45l54-78c39 24 75 33 132 40 84 10 127-92 48-118-99-33-218-48-218-177" id="P"/><g id="b"><use transform="matrix(0.024444444444444446,0,0,0.024444444444444446,0,0)" xlink:href="#I"/><use transform="matrix(0.024444444444444446,0,0,0.024444444444444446,14.862222222222224,0)" xlink:href="#J"/><use transform="matrix(0.024444444444444446,0,0,0.024444444444444446,24.102222222222224,0)" xlink:href="#K"/><use transform="matrix(0.024444444444444446,0,0,0.024444444444444446,39.50222222222222,0)" xlink:href="#L"/><use transform="matrix(0.024444444444444446,0,0,0.024444444444444446,55.02444444444445,0)" xlink:href="#M"/><use transform="matrix(0.024444444444444446,0,0,0.024444444444444446,70.52222222222223,0)" xlink:href="#N"/><use transform="matrix(0.024444444444444446,0,0,0.024444444444444446,82.72,0)" xlink:href="#O"/><use transform="matrix(0.024444444444444446,0,0,0.024444444444444446,96.87333333333333,0)" xlink:href="#J"/><use transform="matrix(0.024444444444444446,0,0,0.024444444444444446,106.45555555555556,0)" xlink:href="#P"/></g><filter id="a" filterUnits="objectBoundingBox" x="-.01" y="0" width="1.02" height="1.01"><feOffset result="offOut" in="SourceAlpha" dy="3"/><feGaussianBlur result="blurOut" in="offOut" stdDeviation="2.5"/><feColorMatrix result="colorOut" in="blurOut" values="0 0 0 0 0.018823529411764708 0 0 0 0 0.018823529411764708 0 0 0 0 0.018823529411764708 0 0 0 0.2 0"/><feBlend in="SourceGraphic" in2="colorOut"/></filter><path d="M540-200C550 52 170 69 26-64l63-83c71 67 317 99 317-48 0-96-79-102-162-127-111-33-193-77-195-204-4-228 334-244 479-129l-59 85c-50-30-95-49-167-50-67 0-123 23-123 86 0 82 64 84 147 110 123 38 208 79 214 224" id="Q"/><g id="d"><use transform="matrix(0.024444444444444446,0,0,0.024444444444444446,0,0)" xlink:href="#Q"/><use transform="matrix(0.024444444444444446,0,0,0.024444444444444446,14.055555555555557,0)" xlink:href="#K"/><use transform="matrix(0.024444444444444446,0,0,0.024444444444444446,29.455555555555556,0)" xlink:href="#M"/><use transform="matrix(0.024444444444444446,0,0,0.024444444444444446,44.95333333333333,0)" xlink:href="#J"/><use transform="matrix(0.024444444444444446,0,0,0.024444444444444446,54.193333333333335,0)" xlink:href="#N"/><use transform="matrix(0.024444444444444446,0,0,0.024444444444444446,66.39111111111112,0)" xlink:href="#O"/></g><path d="M559-108V0H90v-107h190v-469l-179 86-50-93 242-125h118v600h148" id="R"/><use transform="matrix(0.024444444444444446,0,0,0.024444444444444446,0,0)" xlink:href="#R" id="e"/><filter id="c" filterUnits="objectBoundingBox" x="-.01" y="-.01" width="1.02" height="1.03"><feOffset result="offOut" in="SourceAlpha" dy="3"/><feGaussianBlur result="blurOut" in="offOut" stdDeviation="2.5"/><feColorMatrix result="colorOut" in="blurOut" values="0 0 0 0 0.018823529411764708 0 0 0 0 0.018823529411764708 0 0 0 0 0.018823529411764708 0 0 0 0.2 0"/><feBlend in="SourceGraphic" in2="colorOut"/></filter><path fill="#282c33" d="M328-708c153-1 267 84 267 237 0 100-48 168-143 205L621 0H471L331-240H211V0H80v-708h248zm132 237c0-87-59-132-141-132H210v263h111c82 0 139-45 139-131" id="S"/><path fill="#282c33" d="M295-534c175 0 256 137 237 320H170c10 80 57 129 145 129 69-1 102-19 149-47l54 80c-56 41-119 66-211 66C138 14 46-91 44-260c-2-161 90-274 251-274zm117 226c-3-74-41-132-118-132-79 0-120 59-125 132h243" id="T"/><path fill="#282c33" d="M206 14C110 14 37-46 38-146c2-168 152-185 331-181 25-144-173-124-258-70l-42-83c50-30 124-54 200-54 156 0 223 66 225 217 2 121-6 199 9 317H388c-5-27-8-47-9-59h-3c-39 49-83 73-170 73zm36-98c87-3 138-59 128-159-104-1-200-4-202 88-1 45 29 73 74 71" id="U"/><path fill="#282c33" d="M203-708V0H78v-708h125" id="V"/><path fill="#282c33" d="M266 14c-103 1-166-60-165-163v-271H15v-80l85-15v-123l126-44v167h129v95H226v259c-6 69 55 85 113 68l18 92c-25 10-56 15-91 15" id="W"/><path fill="#282c33" d="M203 0H78v-520h125V0zm-62-611c-51 0-77-26-77-71 0-48 26-72 77-72s77 26 77 72c0 45-28 71-77 71" id="X"/><path fill="#282c33" d="M323-431c-76 0-120 65-120 142V0H78c-4-180 9-350-9-520h120c5 21 4 44 10 59 33-42 89-73 163-73 79 0 131 31 166 86 39-57 97-86 173-86 125 1 193 81 193 202V0H769v-314c-1-70-28-117-100-117-78 0-121 72-120 149V0H423v-324c-1-62-33-107-100-107" id="Y"/><g id="g"><use transform="matrix(0.024444444444444446,0,0,0.024444444444444446,0,0)" xlink:href="#S"/><use transform="matrix(0.024444444444444446,0,0,0.024444444444444446,15.473333333333334,0)" xlink:href="#T"/><use transform="matrix(0.024444444444444446,0,0,0.024444444444444446,29.62666666666667,0)" xlink:href="#U"/><use transform="matrix(0.024444444444444446,0,0,0.024444444444444446,43.53555555555556,0)" xlink:href="#V"/><use transform="matrix(0.024444444444444446,0,0,0.024444444444444446,50.42888888888889,0)" xlink:href="#W"/><use transform="matrix(0.024444444444444446,0,0,0.024444444444444446,59.84,0)" xlink:href="#X"/><use transform="matrix(0.024444444444444446,0,0,0.024444444444444446,66.73333333333333,0)" xlink:href="#Y"/><use transform="matrix(0.024444444444444446,0,0,0.024444444444444446,90.34666666666666,0)" xlink:href="#T"/></g><path fill="#282c33" d="M44-355c0-231 126-370 357-373 102-1 196 37 249 90l-74 84c-41-35-99-61-170-61-157-2-225 105-226 260 0 151 70 260 223 258 77-1 135-32 177-71l79 86C603-26 509 20 399 19 169 16 44-126 44-355" id="Z"/><path fill="#282c33" d="M367-534c156 0 224 117 224 273 0 157-81 275-237 275-60 0-110-17-151-50v280H78v-645c0-25-3-65-9-119h120c6 27 5 51 10 62 40-51 96-76 168-76zM324-85c97 0 138-75 138-176 0-99-35-171-124-173-77-2-135 64-135 141v166c37 24 66 41 121 42" id="aa"/><path fill="#282c33" d="M314-534c172 0 271 101 271 272C585-92 485 14 314 14 144 14 44-93 44-262c0-171 98-272 270-272zm0 100c-102 0-140 71-140 172 0 102 39 177 141 177s142-75 142-177-40-172-143-172" id="ab"/><path fill="#282c33" d="M330-430c-79 0-127 62-127 141V0H78c-4-180 9-350-9-520h120c5 20 4 44 10 60 33-43 94-75 172-74 122 1 190 74 190 190V0H436v-317c-1-69-32-113-106-113" id="ac"/><g id="h"><use transform="matrix(0.024444444444444446,0,0,0.024444444444444446,0,0)" xlink:href="#Z"/><use transform="matrix(0.024444444444444446,0,0,0.024444444444444446,16.573333333333334,0)" xlink:href="#U"/><use transform="matrix(0.024444444444444446,0,0,0.024444444444444446,30.482222222222223,0)" xlink:href="#aa"/><use transform="matrix(0.024444444444444446,0,0,0.024444444444444446,45.906666666666666,0)" xlink:href="#W"/><use transform="matrix(0.024444444444444446,0,0,0.024444444444444446,55.31777777777778,0)" xlink:href="#X"/><use transform="matrix(0.024444444444444446,0,0,0.024444444444444446,62.2111111111111,0)" xlink:href="#ab"/><use transform="matrix(0.024444444444444446,0,0,0.024444444444444446,77.61111111111111,0)" xlink:href="#ac"/></g><filter id="f" filterUnits="objectBoundingBox" x="-.02" y="-.02" width="1.03" height="1.08"><feOffset result="offOut" in="SourceAlpha" dy="3"/><feGaussianBlur result="blurOut" in="offOut" stdDeviation="2.5"/><feColorMatrix result="colorOut" in="blurOut" values="0 0 0 0 0.018823529411764708 0 0 0 0 0.018823529411764708 0 0 0 0 0.018823529411764708 0 0 0 0.2 0"/><feBlend in="SourceGraphic" in2="colorOut"/></filter><path d="M253-296l-42 43V0H80v-708h131v291l278-291h156L339-387 670 0H507" id="ad"/><path d="M206 14C110 14 37-46 38-146c2-168 152-185 331-181 25-144-173-124-258-70l-42-83c50-30 124-54 200-54 156 0 223 66 225 217 2 121-6 199 9 317H388c-5-27-8-47-9-59h-3c-39 49-83 73-170 73zm36-98c87-3 138-59 128-159-104-1-200-4-202 88-1 45 29 73 74 71" id="ae"/><path d="M100-515c-8-137 59-207 193-207 37 0 72 6 104 17l-30 89c-69-20-150-1-142 77v24h123v95H225V0H100v-420H15v-80" id="af"/><path d="M247-226l-44 41V0H78v-708h125v382l208-194h148L333-307 576 0H422" id="ag"/><g id="j"><use transform="matrix(0.024444444444444446,0,0,0.024444444444444446,0,0)" xlink:href="#ad"/><use transform="matrix(0.024444444444444446,0,0,0.024444444444444446,15.864444444444445,0)" xlink:href="#ae"/><use transform="matrix(0.024444444444444446,0,0,0.024444444444444446,29.651111111111113,0)" xlink:href="#af"/><use transform="matrix(0.024444444444444446,0,0,0.024444444444444446,38.37777777777778,0)" xlink:href="#ag"/><use transform="matrix(0.024444444444444446,0,0,0.024444444444444446,52.16444444444445,0)" xlink:href="#ae"/></g><path d="M80-708c215 6 493-49 493 177 0 87-55 137-121 159 89 12 151 71 151 171C603-58 495-1 352 0H80v-708zm363 193c0-112-127-93-236-94v196c113 2 236 15 236-102zm26 302c0-126-140-107-262-107v219c125 1 262 15 262-112" id="ah"/><g id="k"><use transform="matrix(0.024444444444444446,0,0,0.024444444444444446,0,0)" xlink:href="#ah"/><use transform="matrix(0.024444444444444446,0,0,0.024444444444444446,15.717777777777778,0)" xlink:href="#J"/><use transform="matrix(0.024444444444444446,0,0,0.024444444444444446,24.95777777777778,0)" xlink:href="#K"/><use transform="matrix(0.024444444444444446,0,0,0.024444444444444446,40.35777777777778,0)" xlink:href="#ag"/><use transform="matrix(0.024444444444444446,0,0,0.024444444444444446,53.851111111111116,0)" xlink:href="#O"/><use transform="matrix(0.024444444444444446,0,0,0.024444444444444446,68.00444444444445,0)" xlink:href="#J"/><use transform="matrix(0.024444444444444446,0,0,0.024444444444444446,77.58666666666667,0)" xlink:href="#P"/></g><filter id="i" filterUnits="objectBoundingBox" x="-.01" y="0" width="1.02" height="1.02"><feOffset result="offOut" in="SourceAlpha" dy="3"/><feGaussianBlur result="blurOut" in="offOut" stdDeviation="2.5"/><feColorMatrix result="colorOut" in="blurOut" values="0 0 0 0 0.018823529411764708 0 0 0 0 0.018823529411764708 0 0 0 0 0.018823529411764708 0 0 0 0.2 0"/><feBlend in="SourceGraphic" in2="colorOut"/></filter><path d="M321-708c238 0 378 113 376 353C695-123 558 0 326 0H80v-708h241zm241 353c0-168-80-245-246-246H210v493h103c166-1 249-79 249-247" id="ai"/><path d="M266 14c-103 1-166-60-165-163v-271H15v-80l85-15v-123l126-44v167h129v95H226v259c-6 69 55 85 113 68l18 92c-25 10-56 15-91 15" id="aj"/><g id="m"><use transform="matrix(0.024444444444444446,0,0,0.024444444444444446,0,0)" xlink:href="#ai"/><use transform="matrix(0.024444444444444446,0,0,0.024444444444444446,17.82,0)" xlink:href="#ae"/><use transform="matrix(0.024444444444444446,0,0,0.024444444444444446,31.60666666666667,0)" xlink:href="#aj"/><use transform="matrix(0.024444444444444446,0,0,0.024444444444444446,41.01777777777778,0)" xlink:href="#ae"/></g><path d="M257 257C121 257 16 215 16 96 16 41 47-4 108-41c-25-16-43-33-43-70 0-44 33-71 72-82-59-31-88-82-88-153 0-157 169-219 323-174h189v99l-105-17c24 21 38 60 38 105-1 116-95 170-219 170-48 0-90 5-96 40 8 33 46 35 96 37 92 3 160 16 204 41s66 62 66 112c0 141-130 190-288 190zm-94-605c1 63 40 98 108 98 72 0 108-31 108-94-1-64-39-99-108-99-61 0-108 37-108 95zm97 512c85-1 161-15 161-84 0-25-17-43-51-54S276 9 192 8c-37 21-55 48-55 81 0 50 41 75 123 75" id="ak"/><g id="n"><use transform="matrix(0.024444444444444446,0,0,0.024444444444444446,0,0)" xlink:href="#Q"/><use transform="matrix(0.024444444444444446,0,0,0.024444444444444446,14.055555555555557,0)" xlink:href="#aj"/><use transform="matrix(0.024444444444444446,0,0,0.024444444444444446,23.1,0)" xlink:href="#K"/><use transform="matrix(0.024444444444444446,0,0,0.024444444444444446,38.5,0)" xlink:href="#J"/><use transform="matrix(0.024444444444444446,0,0,0.024444444444444446,47.715555555555554,0)" xlink:href="#ae"/><use transform="matrix(0.024444444444444446,0,0,0.024444444444444446,61.62444444444445,0)" xlink:href="#ak"/><use transform="matrix(0.024444444444444446,0,0,0.024444444444444446,75.55777777777777,0)" xlink:href="#O"/></g><filter id="l" filterUnits="objectBoundingBox" x="-.01" y="0" width="1.02" height="1.02"><feOffset result="offOut" in="SourceAlpha" dy="3"/><feGaussianBlur result="blurOut" in="offOut" stdDeviation="2.5"/><feColorMatrix result="colorOut" in="blurOut" values="0 0 0 0 0.018823529411764708 0 0 0 0 0.018823529411764708 0 0 0 0 0.018823529411764708 0 0 0 0.2 0"/><feBlend in="SourceGraphic" in2="colorOut"/></filter><path fill="#282c33" d="M380-422c-108-21-177 50-177 149V0H78c-4-180 9-350-9-520h120c6 28 5 55 10 72 34-65 100-96 186-82" id="al"/><path fill="#282c33" d="M660 0H524c-41-127-77-259-120-384L289 0H154L9-520h132c30 126 55 257 88 381l114-381h130c40 126 75 257 117 381l88-381h127" id="am"/><path fill="#282c33" d="M561 201H49V101h512v100" id="an"/><path fill="#282c33" d="M269 14C141 14 72-75 72-200v-320h126v301c0 78 28 134 105 134 81 0 128-71 128-153v-282h125c4 175-9 357 9 520H445c-6-24-5-47-10-61-37 50-92 75-166 75" id="ao"/><path fill="#282c33" d="M44-257c2-159 83-277 241-277 59 0 108 17 147 52v-226h125c4 237-9 482 8 708H449c-6-26-5-51-10-65-38 51-88 79-175 79C113 16 42-104 44-257zM298-85c79 1 134-62 134-142v-152c-34-36-77-54-128-54-90 1-130 79-130 176S212-88 298-85" id="ap"/><g id="p"><use transform="matrix(0.024444444444444446,0,0,0.024444444444444446,0,0)" xlink:href="#al"/><use transform="matrix(0.024444444444444446,0,0,0.024444444444444446,9.215555555555556,0)" xlink:href="#U"/><use transform="matrix(0.024444444444444446,0,0,0.024444444444444446,23.124444444444443,0)" xlink:href="#am"/><use transform="matrix(0.024444444444444446,0,0,0.024444444444444446,41.55555555555556,0)" xlink:href="#an"/><use transform="matrix(0.024444444444444446,0,0,0.024444444444444446,55.85555555555556,0)" xlink:href="#U"/><use transform="matrix(0.024444444444444446,0,0,0.024444444444444446,69.76444444444445,0)" xlink:href="#ao"/><use transform="matrix(0.024444444444444446,0,0,0.024444444444444446,85.26222222222223,0)" xlink:href="#ap"/><use transform="matrix(0.024444444444444446,0,0,0.024444444444444446,100.78444444444445,0)" xlink:href="#X"/><use transform="matrix(0.024444444444444446,0,0,0.024444444444444446,107.67777777777778,0)" xlink:href="#ab"/></g><filter id="o" filterUnits="objectBoundingBox" x="-.02" y="-.02" width="1.03" height="1.08"><feOffset result="offOut" in="SourceAlpha" dy="3"/><feGaussianBlur result="blurOut" in="offOut" stdDeviation="2.5"/><feColorMatrix result="colorOut" in="blurOut" values="0 0 0 0 0.018823529411764708 0 0 0 0 0.018823529411764708 0 0 0 0 0.018823529411764708 0 0 0 0.2 0"/><feBlend in="SourceGraphic" in2="colorOut"/></filter><path fill="#282c33" d="M100-515c-8-137 59-207 193-207 37 0 72 6 104 17l-30 89c-69-20-150-1-142 77v24h123v95H225V0H100v-420H15v-80" id="aq"/><path fill="#282c33" d="M247-226l-44 41V0H78v-708h125v382l208-194h148L333-307 576 0H422" id="ar"/><g id="q"><use transform="matrix(0.024444444444444446,0,0,0.024444444444444446,0,0)" xlink:href="#aq"/><use transform="matrix(0.024444444444444446,0,0,0.024444444444444446,8.726666666666667,0)" xlink:href="#V"/><use transform="matrix(0.024444444444444446,0,0,0.024444444444444446,15.620000000000001,0)" xlink:href="#X"/><use transform="matrix(0.024444444444444446,0,0,0.024444444444444446,22.513333333333335,0)" xlink:href="#ac"/><use transform="matrix(0.024444444444444446,0,0,0.024444444444444446,37.98666666666667,0)" xlink:href="#ar"/><use transform="matrix(0.024444444444444446,0,0,0.024444444444444446,51.968888888888905,0)" xlink:href="#an"/><use transform="matrix(0.024444444444444446,0,0,0.024444444444444446,66.2688888888889,0)" xlink:href="#U"/><use transform="matrix(0.024444444444444446,0,0,0.024444444444444446,80.17777777777778,0)" xlink:href="#ao"/><use transform="matrix(0.024444444444444446,0,0,0.024444444444444446,95.67555555555556,0)" xlink:href="#ap"/><use transform="matrix(0.024444444444444446,0,0,0.024444444444444446,111.19777777777779,0)" xlink:href="#X"/><use transform="matrix(0.024444444444444446,0,0,0.024444444444444446,118.09111111111112,0)" xlink:href="#ab"/></g><g id="s"><use transform="matrix(0.024444444444444446,0,0,0.024444444444444446,0,0)" xlink:href="#I"/><use transform="matrix(0.024444444444444446,0,0,0.024444444444444446,14.862222222222224,0)" xlink:href="#J"/><use transform="matrix(0.024444444444444446,0,0,0.024444444444444446,24.102222222222224,0)" xlink:href="#K"/><use transform="matrix(0.024444444444444446,0,0,0.024444444444444446,39.50222222222222,0)" xlink:href="#N"/><use transform="matrix(0.024444444444444446,0,0,0.024444444444444446,51.69999999999999,0)" xlink:href="#O"/><use transform="matrix(0.024444444444444446,0,0,0.024444444444444446,65.85333333333332,0)" xlink:href="#P"/><use transform="matrix(0.024444444444444446,0,0,0.024444444444444446,77.12222222222222,0)" xlink:href="#P"/><use transform="matrix(0.024444444444444446,0,0,0.024444444444444446,88.39111111111112,0)" xlink:href="#K"/><use transform="matrix(0.024444444444444446,0,0,0.024444444444444446,103.79111111111112,0)" xlink:href="#J"/><use transform="matrix(0.024444444444444446,0,0,0.024444444444444446,113.37333333333333,0)" xlink:href="#P"/></g><filter id="r" filterUnits="objectBoundingBox" x="-.01" y="0" width="1.02" height="1.01"><feOffset result="offOut" in="SourceAlpha" dy="3"/><feGaussianBlur result="blurOut" in="offOut" stdDeviation="2.5"/><feColorMatrix result="colorOut" in="blurOut" values="0 0 0 0 0.018823529411764708 0 0 0 0 0.018823529411764708 0 0 0 0 0.018823529411764708 0 0 0 0.2 0"/><feBlend in="SourceGraphic" in2="colorOut"/></filter><path d="M292-726c146 0 256 75 256 213 0 119-48 165-120 235-42 41-110 97-203 170h342V0H55v-100c157-141 240-191 331-312 66-88 12-214-105-207-79 5-121 36-167 81l-78-68c66-71 129-120 256-120" id="as"/><use transform="matrix(0.024444444444444446,0,0,0.024444444444444446,0,0)" xlink:href="#as" id="t"/><g id="u"><use transform="matrix(0.024444444444444446,0,0,0.024444444444444446,0,0)" xlink:href="#aq"/><use transform="matrix(0.024444444444444446,0,0,0.024444444444444446,8.726666666666667,0)" xlink:href="#V"/><use transform="matrix(0.024444444444444446,0,0,0.024444444444444446,15.620000000000001,0)" xlink:href="#X"/><use transform="matrix(0.024444444444444446,0,0,0.024444444444444446,22.513333333333335,0)" xlink:href="#ac"/><use transform="matrix(0.024444444444444446,0,0,0.024444444444444446,37.98666666666667,0)" xlink:href="#ar"/></g><path fill="#282c33" d="M44-261c0-170 96-273 266-273 65 0 123 19 174 56l-47 87c-40-26-82-39-126-39-98-1-141 69-141 169 0 97 44 171 139 170 41 0 84-13 129-40l45 89C436-9 374 14 299 14 127 14 44-98 44-261" id="at"/><path fill="#282c33" d="M330-430c-78 0-127 63-127 141V0H78v-708h125c1 81-3 167 2 245 38-47 94-71 167-71 121 0 189 79 189 190V0H436v-317c-1-69-32-113-106-113" id="au"/><g id="v"><use transform="matrix(0.024444444444444446,0,0,0.024444444444444446,0,0)" xlink:href="#aa"/><use transform="matrix(0.024444444444444446,0,0,0.024444444444444446,15.546666666666667,0)" xlink:href="#X"/><use transform="matrix(0.024444444444444446,0,0,0.024444444444444446,22.44,0)" xlink:href="#W"/><use transform="matrix(0.024444444444444446,0,0,0.024444444444444446,31.484444444444446,0)" xlink:href="#at"/><use transform="matrix(0.024444444444444446,0,0,0.024444444444444446,43.97555555555556,0)" xlink:href="#au"/></g><path fill="#282c33" d="M39-378c0-175 271-194 382-101l-50 79c-41-25-82-38-123-38-83 0-118 83-42 107 98 31 223 49 223 175C429 33 141 56 23-45l54-78c39 24 75 33 132 40 84 10 127-92 48-118-99-33-218-48-218-177" id="av"/><g id="w"><use transform="matrix(0.024444444444444446,0,0,0.024444444444444446,0,0)" xlink:href="#av"/><use transform="matrix(0.024444444444444446,0,0,0.024444444444444446,11.26888888888889,0)" xlink:href="#au"/><use transform="matrix(0.024444444444444446,0,0,0.024444444444444446,26.76666666666667,0)" xlink:href="#X"/><use transform="matrix(0.024444444444444446,0,0,0.024444444444444446,33.660000000000004,0)" xlink:href="#aq"/><use transform="matrix(0.024444444444444446,0,0,0.024444444444444446,42.46,0)" xlink:href="#W"/></g><g id="x"><use transform="matrix(0.024444444444444446,0,0,0.024444444444444446,0,0)" xlink:href="#al"/><use transform="matrix(0.024444444444444446,0,0,0.024444444444444446,9.582222222222223,0)" xlink:href="#W"/><use transform="matrix(0.024444444444444446,0,0,0.024444444444444446,18.626666666666665,0)" xlink:href="#at"/></g><path fill="#282c33" d="M257 257C121 257 16 215 16 96 16 41 47-4 108-41c-25-16-43-33-43-70 0-44 33-71 72-82-59-31-88-82-88-153 0-157 169-219 323-174h189v99l-105-17c24 21 38 60 38 105-1 116-95 170-219 170-48 0-90 5-96 40 8 33 46 35 96 37 92 3 160 16 204 41s66 62 66 112c0 141-130 190-288 190zm-94-605c1 63 40 98 108 98 72 0 108-31 108-94-1-64-39-99-108-99-61 0-108 37-108 95zm97 512c85-1 161-15 161-84 0-25-17-43-51-54S276 9 192 8c-37 21-55 48-55 81 0 50 41 75 123 75" id="aw"/><g id="y"><use transform="matrix(0.024444444444444446,0,0,0.024444444444444446,0,0)" xlink:href="#aa"/><use transform="matrix(0.024444444444444446,0,0,0.024444444444444446,15.546666666666667,0)" xlink:href="#al"/><use transform="matrix(0.024444444444444446,0,0,0.024444444444444446,24.78666666666667,0)" xlink:href="#ab"/><use transform="matrix(0.024444444444444446,0,0,0.024444444444444446,40.18666666666667,0)" xlink:href="#at"/><use transform="matrix(0.024444444444444446,0,0,0.024444444444444446,52.38444444444443,0)" xlink:href="#T"/><use transform="matrix(0.024444444444444446,0,0,0.024444444444444446,66.53777777777778,0)" xlink:href="#av"/><use transform="matrix(0.024444444444444446,0,0,0.024444444444444446,77.80666666666667,0)" xlink:href="#av"/><use transform="matrix(0.024444444444444446,0,0,0.024444444444444446,89.07555555555557,0)" xlink:href="#X"/><use transform="matrix(0.024444444444444446,0,0,0.024444444444444446,95.9688888888889,0)" xlink:href="#ac"/><use transform="matrix(0.024444444444444446,0,0,0.024444444444444446,111.44222222222223,0)" xlink:href="#aw"/></g><g id="z"><use transform="matrix(0.024444444444444446,0,0,0.024444444444444446,0,0)" xlink:href="#aa"/><use transform="matrix(0.024444444444444446,0,0,0.024444444444444446,15.546666666666667,0)" xlink:href="#aa"/></g><g id="A"><use transform="matrix(0.024444444444444446,0,0,0.024444444444444446,0,0)" xlink:href="#W"/><use transform="matrix(0.024444444444444446,0,0,0.024444444444444446,9.411111111111111,0)" xlink:href="#al"/><use transform="matrix(0.024444444444444446,0,0,0.024444444444444446,18.626666666666665,0)" xlink:href="#U"/><use transform="matrix(0.024444444444444446,0,0,0.024444444444444446,32.535555555555554,0)" xlink:href="#ac"/><use transform="matrix(0.024444444444444446,0,0,0.024444444444444446,48.00888888888889,0)" xlink:href="#av"/><use transform="matrix(0.024444444444444446,0,0,0.024444444444444446,59.27777777777778,0)" xlink:href="#at"/><use transform="matrix(0.024444444444444446,0,0,0.024444444444444446,71.7688888888889,0)" xlink:href="#al"/><use transform="matrix(0.024444444444444446,0,0,0.024444444444444446,81.35111111111112,0)" xlink:href="#X"/><use transform="matrix(0.024444444444444446,0,0,0.024444444444444446,88.24444444444445,0)" xlink:href="#aa"/><use transform="matrix(0.024444444444444446,0,0,0.024444444444444446,103.6688888888889,0)" xlink:href="#W"/><use transform="matrix(0.024444444444444446,0,0,0.024444444444444446,113.08000000000001,0)" xlink:href="#X"/><use transform="matrix(0.024444444444444446,0,0,0.024444444444444446,119.97333333333334,0)" xlink:href="#ab"/><use transform="matrix(0.024444444444444446,0,0,0.024444444444444446,135.37333333333333,0)" xlink:href="#ac"/></g><path fill="#282c33" d="M321-708c238 0 378 113 376 353C695-123 558 0 326 0H80v-708h241zm241 353c0-168-80-245-246-246H210v493h103c166-1 249-79 249-247" id="ax"/><g id="C"><use transform="matrix(0.024444444444444446,0,0,0.024444444444444446,0,0)" xlink:href="#ax"/><use transform="matrix(0.024444444444444446,0,0,0.024444444444444446,18.08888888888889,0)" xlink:href="#ab"/><use transform="matrix(0.024444444444444446,0,0,0.024444444444444446,33.48888888888889,0)" xlink:href="#at"/><use transform="matrix(0.024444444444444446,0,0,0.024444444444444446,45.98,0)" xlink:href="#ar"/><use transform="matrix(0.024444444444444446,0,0,0.024444444444444446,59.47333333333332,0)" xlink:href="#T"/><use transform="matrix(0.024444444444444446,0,0,0.024444444444444446,73.62666666666667,0)" xlink:href="#al"/></g><path fill="#282c33" d="M559-108V0H90v-107h190v-469l-179 86-50-93 242-125h118v600h148" id="ay"/><use transform="matrix(0.024444444444444446,0,0,0.024444444444444446,0,0)" xlink:href="#ay" id="D"/><filter id="B" filterUnits="objectBoundingBox" x="-.03" y="-.02" width="1.06" height="1.08"><feOffset result="offOut" in="SourceAlpha" dy="3"/><feGaussianBlur result="blurOut" in="offOut" stdDeviation="2.5"/><feColorMatrix result="colorOut" in="blurOut" values="0 0 0 0 0.018823529411764708 0 0 0 0 0.018823529411764708 0 0 0 0 0.018823529411764708 0 0 0 0.2 0"/><feBlend in="SourceGraphic" in2="colorOut"/></filter><path fill="#282c33" d="M292-726c146 0 256 75 256 213 0 119-48 165-120 235-42 41-110 97-203 170h342V0H55v-100c157-141 240-191 331-312 66-88 12-214-105-207-79 5-121 36-167 81l-78-68c66-71 129-120 256-120" id="az"/><use transform="matrix(0.024444444444444446,0,0,0.024444444444444446,0,0)" xlink:href="#az" id="E"/><path fill="#282c33" d="M289-727c137 0 238 62 242 192 3 90-46 142-128 166 87 12 153 65 150 167C548-50 436 19 276 19 154 19 85-21 19-84l69-77c57 45 96 69 188 71 80 1 144-40 144-119 0-121-121-106-236-105v-104c108 3 221 8 218-100-2-72-50-102-126-102-59 0-116 21-169 63l-67-75c65-57 137-95 249-95" id="aA"/><use transform="matrix(0.024444444444444446,0,0,0.024444444444444446,0,0)" xlink:href="#aA" id="F"/><path fill="#282c33" d="M566 0H416L282-194 153 0H5l200-272L27-520h144l116 175 114-175h137L363-272" id="aB"/><g id="G"><use transform="matrix(0.024444444444444446,0,0,0.024444444444444446,0,0)" xlink:href="#al"/><use transform="matrix(0.024444444444444446,0,0,0.024444444444444446,9.582222222222223,0)" xlink:href="#W"/><use transform="matrix(0.024444444444444446,0,0,0.024444444444444446,18.626666666666665,0)" xlink:href="#at"/><use transform="matrix(0.024444444444444446,0,0,0.024444444444444446,31.117777777777775,0)" xlink:href="#an"/><use transform="matrix(0.024444444444444446,0,0,0.024444444444444446,44.78222222222222,0)" xlink:href="#W"/><use transform="matrix(0.024444444444444446,0,0,0.024444444444444446,53.82666666666666,0)" xlink:href="#T"/><use transform="matrix(0.024444444444444446,0,0,0.024444444444444446,67.36888888888888,0)" xlink:href="#aB"/><use transform="matrix(0.024444444444444446,0,0,0.024444444444444446,80.8622222222222,0)" xlink:href="#W"/></g><path fill="#3a414a" d="M143 4C61 4 22-44 18-125c-5-107 100-154 193-111 17 8 29 25 37 43l-32 9c-13-25-37-40-76-40-61 0-88 39-88 99 0 61 29 100 91 101 35 0 62-11 79-27v-45h-74v-28h105v86C228-13 192 4 143 4" id="aC"/><use transform="matrix(0.06172839506172839,0,0,0.06172839506172839,0,0)" xlink:href="#aC" id="H"/></defs></g></svg>